<svg width="38" height="34" viewBox="0 0 38 34" fill="none" xmlns="http://www.w3.org/2000/svg">
<path d="M0 13.1364C0 12.7098 0.354667 12.3636 0.791667 12.3636H8.70833C9.14533 12.3636 9.5 12.7098 9.5 13.1364C9.5 13.5629 9.14533 13.9091 8.70833 13.9091H0.791667C0.354667 13.9091 0 13.5629 0 13.1364ZM38 14.6818V22.4091C38 24.7211 36.5053 26.6993 34.409 27.472C34.6877 28.0655 34.8333 28.7053 34.8333 29.3636C34.8333 31.9198 32.7022 34 30.0833 34C27.4645 34 25.3333 31.9198 25.3333 29.3636C25.3333 28.832 25.4283 28.3112 25.612 27.8182H12.388C12.5717 28.3112 12.6667 28.832 12.6667 29.3636C12.6667 31.9198 10.5355 34 7.91667 34C5.29783 34 3.16667 31.9198 3.16667 29.3636C3.16667 28.7053 3.31233 28.0655 3.591 27.472C1.49467 26.6993 0 24.7211 0 22.4091V17.7727C0 17.3462 0.354667 17 0.791667 17C1.22867 17 1.58333 17.3462 1.58333 17.7727V22.4091C1.58333 24.5387 3.35825 26.2727 5.54167 26.2727H25.3333V6.95455C25.3333 3.97182 22.8475 1.54545 19.7917 1.54545C19.3547 1.54545 19 1.19927 19 0.772727C19 0.346182 19.3547 0 19.7917 0C23.7199 0 26.9167 3.12027 26.9167 6.95455V7.72727H30.875C34.8032 7.72727 38 10.8475 38 14.6818ZM26.9167 9.27273V17H36.4167V14.6818C36.4167 11.6991 33.9308 9.27273 30.875 9.27273H26.9167ZM10.6448 27.8182H5.54167C5.42608 27.8182 5.3105 27.8135 5.19492 27.8074C4.902 28.2849 4.75 28.815 4.75 29.3636C4.75 31.0683 6.17025 32.4545 7.91667 32.4545C9.66308 32.4545 11.0833 31.0683 11.0833 29.3636C11.0833 28.8196 10.9329 28.2926 10.6448 27.8182ZM32.8051 27.8074C32.6911 27.8151 32.5755 27.8182 32.4583 27.8182H27.3553C27.0671 28.2926 26.9167 28.8196 26.9167 29.3636C26.9167 31.0683 28.3369 32.4545 30.0833 32.4545C31.8298 32.4545 33.25 31.0683 33.25 29.3636C33.25 28.815 33.0964 28.2849 32.8051 27.8074ZM36.4167 22.4091V18.5455H26.9167V26.2727H32.4583C34.6418 26.2727 36.4167 24.5387 36.4167 22.4091ZM0.791667 1.54545H15.0417C15.4787 1.54545 15.8333 1.19927 15.8333 0.772727C15.8333 0.346182 15.4787 0 15.0417 0H0.791667C0.354667 0 0 0.346182 0 0.772727C0 1.19927 0.354667 1.54545 0.791667 1.54545ZM0.791667 7.72727H11.875C12.312 7.72727 12.6667 7.38109 12.6667 6.95455C12.6667 6.528 12.312 6.18182 11.875 6.18182H0.791667C0.354667 6.18182 0 6.528 0 6.95455C0 7.38109 0.354667 7.72727 0.791667 7.72727Z" fill="#9123A8"/>
</svg>
