<svg width="38" height="38" viewBox="0 0 38 38" fill="none" xmlns="http://www.w3.org/2000/svg">
<path d="M15.8399 13.4527C15.8399 13.8959 15.4915 14.2441 15.0479 14.2441H13.4639C13.0204 14.2441 12.6719 14.5923 12.6719 15.0354V16.6181C12.6719 17.0612 12.3235 17.4094 11.8799 17.4094C11.4364 17.4094 11.088 17.0612 11.088 16.6181V15.0354C11.088 13.7218 12.1492 12.6614 13.4639 12.6614H15.0479C15.4915 12.6614 15.8399 13.0096 15.8399 13.4527ZM11.8799 23.7401C11.4364 23.7401 11.088 24.0883 11.088 24.5314V26.1141C11.088 27.4277 12.1492 28.4881 13.4639 28.4881H15.0479C15.4915 28.4881 15.8399 28.1399 15.8399 27.6968C15.8399 27.2536 15.4915 26.9055 15.0479 26.9055H13.4639C13.0204 26.9055 12.6719 26.5573 12.6719 26.1141V24.5314C12.6719 24.0883 12.3235 23.7401 11.8799 23.7401ZM26.1359 17.4094C26.5794 17.4094 26.9279 17.0612 26.9279 16.6181V15.0354C26.9279 13.7218 25.8666 12.6614 24.5519 12.6614H22.9679C22.5244 12.6614 22.1759 13.0096 22.1759 13.4527C22.1759 13.8959 22.5244 14.2441 22.9679 14.2441H24.5519C24.9954 14.2441 25.3439 14.5923 25.3439 15.0354V16.6181C25.3439 17.0612 25.6924 17.4094 26.1359 17.4094ZM34.0559 0H26.3893C24.7261 0 23.2689 0.917951 22.6669 2.32653C22.0492 3.79842 20.6078 4.74802 19.0238 4.74802C17.4398 4.74802 15.9983 3.79842 15.3806 2.32653C14.7787 0.902124 13.3214 0 11.6582 0H3.95998C1.77407 0 0 1.77259 0 3.95668V7.21699C0 8.92628 1.09296 10.4298 2.70863 10.9679L3.12047 11.1104C4.0867 11.4427 4.75198 12.3449 4.75198 13.3578V30.8621C4.75198 34.7872 7.95165 37.9842 11.8799 37.9842H19.7999C20.2434 37.9842 20.5919 37.636 20.5919 37.1928C20.5919 36.7497 20.2434 36.4015 19.7999 36.4015H11.8799C8.82284 36.4015 6.33597 33.9167 6.33597 30.8621V13.3578C6.33597 11.6485 5.24302 10.1449 3.62734 9.60683L3.21551 9.46439C2.24927 9.13203 1.58399 8.2299 1.58399 7.21699V3.95668C1.58399 2.64307 2.64527 1.58267 3.95998 1.58267H11.6265C12.6403 1.58267 13.5431 2.13661 13.8916 2.94377C14.7628 5.00125 16.7745 6.3307 18.9921 6.3307C21.2097 6.3307 23.2213 5.00125 24.1084 2.94377C24.4569 2.12078 25.3597 1.58267 26.3735 1.58267H34.04C35.3547 1.58267 36.416 2.64307 36.416 3.95668V7.21699C36.416 8.24573 35.7666 9.14785 34.8003 9.46439L34.3727 9.60683C32.757 10.1449 31.664 11.6485 31.664 13.3578V19.7834C31.664 20.2266 32.0125 20.5748 32.456 20.5748C32.8995 20.5748 33.248 20.2266 33.248 19.7834V13.3578C33.248 12.329 33.8975 11.4269 34.8637 11.1104L35.2914 10.9679C36.907 10.4298 38 8.92628 38 7.21699V3.95668C38 1.77259 36.2259 0 34.04 0H34.0559ZM36.4318 26.6047C36.4318 26.9213 36.2734 27.2062 35.9883 27.3486L29.193 30.7514L25.7874 37.5569C25.6607 37.8259 25.3756 38 25.0746 38H25.0429C24.7261 38 24.4569 37.7784 24.346 37.4935L19.1663 23.9933C18.8337 23.0437 19.0713 22.0308 19.7682 21.3344C20.4652 20.6381 21.4631 20.4007 22.3977 20.733C22.3977 20.733 22.4135 20.733 22.4293 20.733L35.9408 25.9084C36.2418 26.0192 36.4318 26.2882 36.4477 26.6047H36.4318ZM33.6757 26.7314L21.8591 22.2049C21.7641 22.1733 21.6532 22.1574 21.5423 22.1574C21.2889 22.1574 21.0513 22.2524 20.8612 22.4423C20.5919 22.7114 20.5127 23.0754 20.6236 23.4394L25.1538 35.2303L27.8624 29.8018C27.9416 29.6435 28.0684 29.5169 28.2109 29.4536L33.644 26.7472L33.6757 26.7314Z" fill="#9123A8"/>
</svg>
