<svg width="38" height="38" viewBox="0 0 38 38" fill="none" xmlns="http://www.w3.org/2000/svg">
<path d="M21.375 5.54167C21.375 5.10467 21.7297 4.75 22.1667 4.75H27.7083C30.7642 4.75 33.25 7.23583 33.25 10.2917V15.8333C33.25 16.2703 32.8953 16.625 32.4583 16.625C32.0213 16.625 31.6667 16.2703 31.6667 15.8333V10.2917C31.6667 8.10983 29.8918 6.33333 27.7083 6.33333H22.1667C21.7297 6.33333 21.375 5.97867 21.375 5.54167ZM9.5 9.5C7.75358 9.5 6.33333 8.07975 6.33333 6.33333C6.33333 4.58692 7.75358 3.16667 9.5 3.16667C11.2464 3.16667 12.6667 4.58692 12.6667 6.33333C12.6667 8.07975 11.2464 9.5 9.5 9.5ZM9.5 7.91667C10.374 7.91667 11.0833 7.20575 11.0833 6.33333C11.0833 5.46092 10.374 4.75 9.5 4.75C8.626 4.75 7.91667 5.46092 7.91667 6.33333C7.91667 7.20575 8.626 7.91667 9.5 7.91667ZM31.6667 25.3333C31.6667 27.0798 30.2464 28.5 28.5 28.5C26.7536 28.5 25.3333 27.0798 25.3333 25.3333C25.3333 23.5869 26.7536 22.1667 28.5 22.1667C30.2464 22.1667 31.6667 23.5869 31.6667 25.3333ZM30.0833 25.3333C30.0833 24.4609 29.374 23.75 28.5 23.75C27.626 23.75 26.9167 24.4609 26.9167 25.3333C26.9167 26.2058 27.626 26.9167 28.5 26.9167C29.374 26.9167 30.0833 26.2058 30.0833 25.3333ZM38 28.5C38 33.7393 33.7393 38 28.5 38C23.2607 38 19 33.7393 19 28.5C19 23.2607 23.2607 19 28.5 19C33.7393 19 38 23.2607 38 28.5ZM31.6667 34.8333C31.6667 33.0869 30.2464 31.6667 28.5 31.6667C26.7536 31.6667 25.3333 33.0869 25.3333 34.8333V35.7422C26.3055 36.1697 27.3727 36.4167 28.5 36.4167C29.6273 36.4167 30.6945 36.1697 31.6667 35.7422V34.8333ZM36.4167 28.5C36.4167 24.1348 32.8652 20.5833 28.5 20.5833C24.1348 20.5833 20.5833 24.1348 20.5833 28.5C20.5833 31.0777 21.8405 33.3498 23.7532 34.7953C23.7738 32.1939 25.8923 30.0833 28.5 30.0833C31.1077 30.0833 33.2262 32.1939 33.2468 34.7953C35.1595 33.3482 36.4167 31.0777 36.4167 28.5ZM15.8333 31.6667H10.2917C8.10825 31.6667 6.33333 29.8902 6.33333 27.7083V22.1667C6.33333 21.7297 5.97867 21.375 5.54167 21.375C5.10467 21.375 4.75 21.7297 4.75 22.1667V27.7083C4.75 30.7642 7.23583 33.25 10.2917 33.25H15.8333C16.2703 33.25 16.625 32.8953 16.625 32.4583C16.625 32.0213 16.2703 31.6667 15.8333 31.6667ZM9.5 19C4.26075 19 0 14.7393 0 9.5C0 4.26075 4.26075 0 9.5 0C14.7393 0 19 4.26075 19 9.5C19 14.7393 14.7393 19 9.5 19ZM9.5 11.0833C12.1062 11.0833 14.2263 13.1939 14.2468 15.7953C16.1595 14.3482 17.4167 12.0777 17.4167 9.5C17.4167 5.13475 13.8653 1.58333 9.5 1.58333C5.13475 1.58333 1.58333 5.13475 1.58333 9.5C1.58333 12.0777 2.8405 14.3498 4.75317 15.7953C4.77375 13.1939 6.89225 11.0833 9.5 11.0833ZM6.33333 16.7422C7.3055 17.1697 8.37267 17.4167 9.5 17.4167C10.6273 17.4167 11.6945 17.1697 12.6667 16.7422C12.6667 16.7042 12.6667 15.8333 12.6667 15.8333C12.6667 14.0869 11.2464 12.6667 9.5 12.6667C7.75358 12.6667 6.33333 14.0869 6.33333 15.8333C6.33333 15.8333 6.33333 16.7026 6.33333 16.7422Z" fill="#9123A8"/>
</svg>
