<svg width="38" height="38" viewBox="0 0 38 38" fill="none" xmlns="http://www.w3.org/2000/svg">
<path d="M11.875 0H5.54167C2.48583 0 0 2.48583 0 5.54167V11.875C0 14.9308 2.48583 17.4167 5.54167 17.4167H11.875C14.9308 17.4167 17.4167 14.9308 17.4167 11.875V5.54167C17.4167 2.48583 14.9308 0 11.875 0ZM15.8333 11.875C15.8333 14.06 14.06 15.8333 11.875 15.8333H5.54167C3.35667 15.8333 1.58333 14.06 1.58333 11.875V5.54167C1.58333 3.35667 3.35667 1.58333 5.54167 1.58333H11.875C14.06 1.58333 15.8333 3.35667 15.8333 5.54167V11.875ZM32.4583 20.5833H26.125C23.0692 20.5833 20.5833 23.0692 20.5833 26.125V32.4583C20.5833 35.5142 23.0692 38 26.125 38H32.4583C35.5142 38 38 35.5142 38 32.4583V26.125C38 23.0692 35.5142 20.5833 32.4583 20.5833ZM36.4167 32.4583C36.4167 34.6433 34.6433 36.4167 32.4583 36.4167H26.125C23.94 36.4167 22.1667 34.6433 22.1667 32.4583V26.125C22.1667 23.94 23.94 22.1667 26.125 22.1667H32.4583C34.6433 22.1667 36.4167 23.94 36.4167 26.125V32.4583ZM11.875 20.5833H5.54167C2.48583 20.5833 0 23.0692 0 26.125V32.4583C0 35.5142 2.48583 38 5.54167 38H11.875C14.9308 38 17.4167 35.5142 17.4167 32.4583V26.125C17.4167 23.0692 14.9308 20.5833 11.875 20.5833ZM15.8333 32.4583C15.8333 34.6433 14.06 36.4167 11.875 36.4167H5.54167C3.35667 36.4167 1.58333 34.6433 1.58333 32.4583V26.125C1.58333 23.94 3.35667 22.1667 5.54167 22.1667H11.875C14.06 22.1667 15.8333 23.94 15.8333 26.125V32.4583ZM27.5658 15.2317C28.0725 15.6275 28.6742 15.8333 29.2917 15.8333C29.9092 15.8333 30.5108 15.6275 31.0175 15.2317C32.1892 14.2975 38 9.405 38 5.14583C38 2.31167 35.8625 0 33.25 0C31.6508 0 30.1783 0.870833 29.2917 2.20083C28.4208 0.855 26.9483 0 25.3333 0C22.7208 0 20.5833 2.31167 20.5833 5.14583C20.5833 9.405 26.3942 14.2975 27.5658 15.2317ZM25.3333 1.58333C26.8533 1.58333 28.215 2.81833 28.5 4.44917C28.5633 4.82917 28.8958 5.09833 29.2758 5.09833C29.6558 5.09833 29.9883 4.82917 30.0517 4.44917C30.3367 2.81833 31.7142 1.58333 33.25 1.58333C34.9917 1.58333 36.4167 3.1825 36.4167 5.14583C36.4167 8.075 32.395 12.0808 30.02 13.9967C29.5925 14.3292 28.975 14.345 28.5633 13.9967C26.1883 12.0967 22.1667 8.09083 22.1667 5.14583C22.1667 3.1825 23.5917 1.58333 25.3333 1.58333Z" fill="#9123A8"/>
</svg>
