<svg width="38" height="38" viewBox="0 0 38 38" fill="none" xmlns="http://www.w3.org/2000/svg">
  <path d="M36.7275 15.2947L34.6531 12.7311C32.9921 10.6773 30.525 9.50079 27.8837 9.50079H23.5022C23.5022 9.50079 23.4991 9.50079 23.4975 9.50079H10.0854C7.45836 9.50079 4.99762 10.6678 3.33496 12.7041C3.33496 12.7041 1.31285 15.1838 1.3081 15.1918C-0.718762 17.852 -0.348227 21.6745 2.12834 23.8739L15.3299 36.6097C16.3718 37.536 17.6766 38 18.9846 38C20.3052 38 21.6274 37.5265 22.6867 36.5812L35.8487 23.9246C38.3316 21.7077 38.7195 18.0103 36.7291 15.2947H36.7275ZM33.4228 13.7271L35.4734 16.2622C35.741 16.6264 35.95 17.0159 36.102 17.4181H26.8355C26.7294 16.5678 26.514 15.7286 26.1894 14.9178L24.655 11.0843H27.8837C30.0436 11.0843 32.0641 12.047 33.4228 13.7271ZM18.9782 34.6256L13.2096 22.3174C12.8058 21.2469 12.6237 20.1211 12.6633 19.0016H25.3264C25.2916 19.8978 25.1158 20.7861 24.7975 21.6301L18.9782 34.6256ZM12.8723 17.4181C12.9705 16.989 13.1019 16.5646 13.2682 16.1498C13.2682 16.1498 15.2697 11.1333 15.2792 11.0843H22.9512L24.7199 15.5053C24.9685 16.1276 25.1411 16.7689 25.2377 17.4181H12.8723ZM4.56375 13.7065C5.92238 12.0391 7.93657 11.0843 10.0854 11.0843H13.5912L11.7987 15.5623C11.5564 16.1672 11.3759 16.7879 11.254 17.4181H1.87657C2.03809 16.9763 2.26452 16.5535 2.55905 16.1624L4.56375 13.7065ZM3.20353 22.7132C2.11409 21.7457 1.56304 20.3729 1.58521 19H11.0814C11.0434 20.3174 11.2651 21.6491 11.7512 22.9302L18.0139 36.2994C17.4311 36.1505 16.8769 35.8671 16.4035 35.4475L3.20195 22.7148L3.20353 22.7132ZM34.7735 22.7623L21.6116 35.419C21.1254 35.8528 20.5585 36.1442 19.9647 36.2962L26.2622 22.2303C26.6581 21.1836 26.8735 20.0926 26.9099 18.9984H36.414C36.414 18.9984 36.4156 18.9984 36.4171 18.9984C36.452 20.3792 35.893 21.7616 34.7735 22.7607V22.7623ZM18.2023 5.54213V0.791733C18.2023 0.354696 18.557 0 18.9941 0C19.4311 0 19.7858 0.354696 19.7858 0.791733V5.54213C19.7858 5.97917 19.4311 6.33386 18.9941 6.33386C18.557 6.33386 18.2023 5.97917 18.2023 5.54213ZM25.4404 5.13518L27.8156 1.17651C28.0437 0.802817 28.533 0.68089 28.9019 0.904159C29.2772 1.12901 29.3991 1.61513 29.1743 1.99042L26.7991 5.94908C26.6502 6.1961 26.3873 6.33386 26.1197 6.33386C25.9804 6.33386 25.8395 6.29903 25.7128 6.22144C25.3375 5.99658 25.2156 5.51046 25.4404 5.13518ZM8.81382 1.99042C8.58738 1.61672 8.71089 1.12901 9.08618 0.904159C9.4583 0.679307 9.94601 0.802817 10.1725 1.17651L12.5477 5.13518C12.7741 5.50888 12.6506 5.99658 12.2753 6.22144C12.1486 6.29903 12.0077 6.33386 11.8684 6.33386C11.6008 6.33386 11.3379 6.1961 11.189 5.94908L8.81382 1.99042Z" fill="#9123A8"/>
</svg>
