<svg width="35" height="38" viewBox="0 0 35 38" fill="none" xmlns="http://www.w3.org/2000/svg">
<path d="M33.4792 24.111L23.9541 14.801L24.9036 11.2559C25.2678 9.61875 25.4523 7.94358 25.4523 6.27633V0.791667C25.4523 0.354667 25.0961 0 24.6571 0C24.2181 0 23.8619 0.354667 23.8619 0.791667V4.807C20.9355 5.0825 18.5435 6.77508 17.5002 7.64592C16.4569 6.77508 14.0649 5.0825 11.1385 4.807V0.791667C11.1385 0.354667 10.7823 0 10.3433 0C9.90435 0 9.5481 0.354667 9.5481 0.791667V6.27475C9.5481 7.94992 9.73258 9.62508 10.1047 11.2876L11.0463 14.7994L1.561 24.0714C-0.159838 25.5281 -0.504959 28.0203 0.761016 29.868C4.08659 34.732 10.8125 38 17.4986 38C24.1847 38 30.9122 34.7336 34.2362 29.868C35.5022 28.0203 35.1571 25.5281 33.4776 24.1094L33.4792 24.111ZM17.4986 9.5C17.7022 9.5 17.9058 9.424 18.0616 9.26883C18.0887 9.24192 20.6397 6.78933 23.8539 6.40933C23.8444 7.91825 23.679 9.43192 23.3577 10.8791L22.4544 14.2484H12.5445L11.649 10.9108C11.3198 9.43667 11.1544 7.923 11.1449 6.40775C14.3591 6.78617 16.9102 9.24033 16.9372 9.26725C17.0931 9.42083 17.2966 9.49842 17.5002 9.49842L17.4986 9.5ZM32.9225 28.9782C29.9262 33.3592 23.5836 36.4167 17.4986 36.4167C11.4137 36.4167 5.07106 33.3577 2.07471 28.9782C1.26836 27.8002 1.49102 26.2105 2.63453 25.2399L12.2582 15.8349H22.7422L32.4072 25.2795C33.5078 26.2121 33.7305 27.8018 32.9241 28.9797L32.9225 28.9782Z" fill="#9123A8"/>
</svg>
