<svg width="38" height="38" viewBox="0 0 38 38" fill="none" xmlns="http://www.w3.org/2000/svg">
<path d="M9.49054 9.15008C10.8048 9.68208 11.956 10.6875 13.1738 11.7515C15.0249 13.3681 16.9409 15.0417 19.5695 15.0417C22.9012 15.0417 25.6913 12.7633 26.605 9.66625C27.818 10.5529 29.0135 11.8766 30.2312 13.87C30.3801 14.1154 30.6414 14.25 30.9074 14.25C31.0483 14.25 31.1908 14.2136 31.3207 14.1344C31.6928 13.9064 31.8116 13.4187 31.5836 13.0467C30.0729 10.5703 28.5512 8.97433 26.9059 7.96258C26.9138 7.81375 26.9502 7.67283 26.9502 7.52083C26.9502 3.37408 23.6407 0 19.5727 0C15.2101 0 11.595 1.7575 8.51985 5.37383C8.01946 5.96283 7.83578 6.726 8.01788 7.46542C8.20315 8.22067 8.75579 8.85083 9.49529 9.15008H9.49054ZM9.72173 6.39825C12.477 3.15875 15.6979 1.58333 19.5695 1.58333C22.651 1.58333 25.1561 4.06917 25.3303 7.182C23.6724 6.53442 21.8704 6.33333 19.8213 6.33333C19.3843 6.33333 19.0296 6.688 19.0296 7.125C19.0296 7.562 19.3843 7.91667 19.8213 7.91667C21.7437 7.91667 23.5061 8.0275 25.2115 8.83025C24.6272 11.4744 22.3248 13.4583 19.5695 13.4583C17.5347 13.4583 15.9211 12.0492 14.2141 10.5577C12.9521 9.45408 11.6457 8.31408 10.0843 7.68233C9.81199 7.5715 9.61722 7.35458 9.55229 7.08858C9.51746 6.94608 9.4937 6.66742 9.72173 6.39825ZM36.3847 20.425C36.076 19.7062 35.4616 19.2043 34.6999 19.0491C33.9335 18.8923 33.1386 19.1235 32.5669 19.6666C31.4917 20.6894 30.1505 21.4336 28.7285 22.2205C26.5955 23.4017 24.3897 24.624 23.1055 26.8913C22.1253 28.6251 21.8846 30.6343 22.4246 32.547C22.7413 33.668 23.3288 34.6576 24.092 35.4983C22.8015 36.0573 21.3779 36.4167 19.8213 36.4167C19.3843 36.4167 19.0296 36.7713 19.0296 37.2083C19.0296 37.6453 19.3843 38 19.8213 38C21.883 38 23.769 37.4807 25.4142 36.6415C25.6138 36.7777 25.7959 36.9328 26.0096 37.0516C27.1703 37.6928 28.4292 37.9968 29.6723 37.9968C32.3167 37.9968 34.8883 36.6209 36.2691 34.181C38.5383 30.172 38.5779 25.5423 36.3847 20.425ZM34.8915 33.402C33.3143 36.1855 29.7799 37.1988 26.936 35.7343C29.2922 34.0923 30.966 31.7807 31.6437 29.5418C31.7704 29.1238 31.5345 28.6821 31.1148 28.5554C30.7 28.4288 30.255 28.6663 30.1283 29.0842C29.4981 31.1679 27.8512 33.3086 25.5536 34.7399C24.803 34.0227 24.2377 33.136 23.9495 32.1179C23.5235 30.6138 23.7151 29.0352 24.4863 27.6719C25.5488 25.7941 27.4665 24.7317 29.4965 23.6075C30.9422 22.8063 32.4371 21.9783 33.6595 20.8145C33.8179 20.6657 34.0158 20.5849 34.2201 20.5849C34.2723 20.5849 34.3262 20.5897 34.3816 20.6007C34.5273 20.6308 34.7917 20.729 34.9295 21.0504C36.9184 25.6912 36.9057 29.8474 34.8931 33.4036L34.8915 33.402ZM14.4073 23.4317C13.5586 21.565 12.0416 20.1479 10.1334 19.4433C8.90147 18.9889 7.60459 18.9018 6.34253 19.1108C6.3362 17.0968 6.72416 15.1699 7.75344 13.9729C8.04005 13.642 8.00046 13.1417 7.66951 12.8567C7.33856 12.5732 6.83817 12.6097 6.55314 12.9422C5.16283 14.5588 4.67511 17.0478 4.74795 19.5557C4.62918 19.6048 4.50409 19.6286 4.38691 19.684C0.61184 21.4463 -1.04767 25.9936 0.689432 29.8189C2.59122 34.0084 6.19844 36.7413 11.4097 37.9383C11.5839 37.9778 11.7597 37.9984 11.9339 37.9984C12.5293 37.9984 13.1073 37.7688 13.5491 37.3445C14.1318 36.784 14.3883 35.9718 14.2379 35.1753C14.1745 34.8333 14.1619 33.9134 14.1555 33.4226C14.1381 32.1638 14.3851 30.9843 14.6211 29.8427C15.0375 27.8366 15.4683 25.7624 14.4089 23.4302L14.4073 23.4317ZM13.0677 29.5213C12.8143 30.7452 12.5514 32.0118 12.572 33.5429C12.5815 34.2443 12.599 35.0281 12.6797 35.4698C12.732 35.7453 12.6465 36.0129 12.4485 36.2045C12.2632 36.3834 12.0178 36.4515 11.7629 36.3961C7.05828 35.3147 3.81685 32.8811 2.12884 29.165C0.778108 26.1883 2.02116 22.6781 4.88413 21.2214C5.13907 23.2528 5.7123 25.175 6.45971 26.5113C6.6054 26.771 6.87459 26.9167 7.1517 26.9167C7.28313 26.9167 7.41615 26.8834 7.53808 26.8169C7.9197 26.6032 8.05588 26.1218 7.84211 25.7387C7.1422 24.4894 6.62598 22.6179 6.42488 20.6847C6.79542 20.6118 7.16912 20.5612 7.54441 20.5612C8.23165 20.5612 8.91889 20.6831 9.58396 20.9285C11.0915 21.4858 12.2918 22.6068 12.9647 24.0873C13.8087 25.9493 13.4651 27.6054 13.0661 29.5228L13.0677 29.5213Z" fill="#9123A8"/>
</svg>
