<svg width="22" height="20" viewBox="0 0 22 20" fill="none" xmlns="http://www.w3.org/2000/svg">
<path d="M9.70234 19.4557L9.59492 19.3505L2.0668 11.909C0.747656 10.6055 0 8.77603 0 6.85963V6.70869C0 3.48878 2.14844 0.726235 5.12187 0.1225C6.81484 -0.225105 8.54648 0.191106 9.92578 1.22477C10.3125 1.51749 10.6734 1.85595 11 2.24472C11.1805 2.02518 11.3738 1.82393 11.5801 1.63641C11.7391 1.49005 11.9023 1.35284 12.0742 1.22477C13.4535 0.191106 15.1852 -0.225104 16.8781 0.117926C19.8516 0.721661 22 3.48878 22 6.70869V6.85963C22 8.77603 21.2523 10.6055 19.9332 11.909L12.4051 19.3505L12.2977 19.4557C11.9453 19.8033 11.4812 20 11 20C10.5188 20 10.0547 19.8079 9.70234 19.4557ZM10.2738 4.67338C10.2566 4.65966 10.2438 4.64136 10.2309 4.62307L9.46602 3.70832L9.46172 3.70374C8.46914 2.51914 6.96953 1.97944 5.50859 2.27673C3.50625 2.6838 2.0625 4.54074 2.0625 6.70869V6.85963C2.0625 8.16314 2.57383 9.41178 3.47188 10.2991L11 17.7406L18.5281 10.2991C19.4262 9.41178 19.9375 8.16314 19.9375 6.85963V6.70869C19.9375 4.54531 18.4937 2.6838 16.4957 2.27673C15.0348 1.97944 13.5309 2.52372 12.5426 3.70374C12.5426 3.70374 12.5426 3.70374 12.5383 3.70832C12.534 3.71289 12.5383 3.70832 12.534 3.71289L11.7691 4.62764C11.7562 4.64593 11.7391 4.65966 11.7262 4.67795C11.5328 4.88377 11.2707 4.99811 11 4.99811C10.7293 4.99811 10.4672 4.88377 10.2738 4.67795V4.67338Z" fill="#1A1A1A" fill-opacity="0.5"/>
</svg>
