<svg width="38" height="38" viewBox="0 0 38 38" fill="none" xmlns="http://www.w3.org/2000/svg">
<path d="M38 19C38 8.70833 29.9202 0 19 0C8.52308 0 0 8.52308 0 19C0 29.4769 8.52308 38 19 38C30.3668 38 38 29.0273 38 19ZM36.3676 20.3189L31.3278 18.2812C31.2186 18.2257 31.1378 18.1276 31.1077 18.0072L30.115 14.0394C30.0707 13.8605 30.153 13.6642 30.3367 13.5581L34.4628 10.9883C35.7121 13.3887 36.4183 16.1136 36.4183 19C36.4183 19.4433 36.3993 19.8835 36.3676 20.3189ZM19 1.58333C19.1504 1.58333 19.3024 1.58492 19.4513 1.58967C18.4332 2.9545 16.8546 5.07933 16.5617 5.53217C15.9394 6.49483 15.9204 7.70767 16.511 8.69408L17.6716 10.6289L16.5648 10.0747C15.4628 9.52217 14.1423 9.73908 13.2794 10.6083L12.4418 11.4459C11.9035 11.9827 11.609 12.6983 11.609 13.4583C11.609 13.7291 11.6454 13.9951 11.7198 14.25H8.86983C8.69725 14.25 8.52783 14.1788 8.40433 14.0473L4.24808 9.75333C7.33083 4.84975 12.7917 1.58333 19 1.58333ZM19 36.4167C9.39708 36.4167 1.58333 28.6029 1.58333 19C1.58333 16.1943 2.2515 13.5422 3.43425 11.191L7.25958 15.1414C7.67758 15.58 8.26342 15.8333 8.86983 15.8333H11.9542C12.4133 15.8333 12.8456 16.0123 13.1718 16.3368L13.7608 16.9274C14.0727 17.2393 14.2516 17.67 14.2516 18.1086V19.6333C14.2516 20.2493 14.4907 20.8256 14.9245 21.2563L16.8071 23.1404C17.2013 23.5347 17.4183 24.0588 17.4183 24.6145V28.3591C17.4183 29.3107 18.1925 30.0849 19.1441 30.0849H19.4813C20.1527 30.0849 20.767 29.6907 21.0473 29.0827L24.5955 21.3956C25.0183 20.482 24.6937 19.3927 23.8387 18.8607L19.7822 16.3226C19.2708 16.0043 18.6818 15.8349 18.0785 15.8349H15.8128C15.3219 15.8349 14.8438 15.637 14.4986 15.2902L13.5612 14.3529C13.3237 14.1154 13.1923 13.7972 13.1923 13.4599C13.1923 13.1227 13.3237 12.8044 13.5612 12.5669L14.4004 11.7278C14.7836 11.343 15.371 11.248 15.8571 11.4934L17.2488 12.1885C17.8252 12.4798 18.5218 12.3658 18.9668 11.9098C19.4528 11.4237 19.5462 10.6764 19.1963 10.0906L17.8695 7.88025C17.5908 7.41475 17.6003 6.84475 17.8932 6.39192C18.1957 5.92483 20.2635 3.15083 21.3196 1.7385C26.4987 2.43042 30.9653 5.4055 33.6696 9.61717L29.5228 12.1996C28.7533 12.6429 28.3654 13.5565 28.5792 14.421L29.5719 18.3873C29.7128 18.9573 30.096 19.4354 30.6787 19.722L36.1681 21.9434C34.7653 30.1498 27.6023 36.4151 19.0016 36.4151L19 36.4167ZM17.9249 22.0194L16.0408 20.1337C15.9078 20.0007 15.8333 19.8233 15.8333 19.6318V18.107C15.8333 17.8743 15.8064 17.6415 15.7573 17.4151C15.7763 17.4151 15.7922 17.4151 15.8112 17.4151H18.0769C18.3825 17.4151 18.6833 17.5006 18.9446 17.6621L23.0011 20.2002C23.1784 20.311 23.2449 20.5374 23.1578 20.7274L19.4813 28.4984H19.1441C19.0665 28.4984 19.0016 28.4335 19.0016 28.3559V24.6113C19.0016 23.6328 18.62 22.7113 17.9265 22.0178L17.9249 22.0194Z" fill="#9123A8"/>
</svg>
