<svg width="38" height="34" viewBox="0 0 38 34" fill="none" xmlns="http://www.w3.org/2000/svg">
<path d="M38 10.8246C38 13.0885 37.2036 15.5611 35.6345 18.1745C35.4857 18.4203 35.2212 18.5564 34.9505 18.5564C34.8128 18.5564 34.675 18.5224 34.5499 18.4497C34.1731 18.2332 34.0464 17.76 34.2665 17.392C35.6915 15.0183 36.4151 12.8101 36.4151 10.8246C36.4151 5.96898 32.2652 1.54637 27.7068 1.54637C23.9796 1.54637 22.0717 2.97985 20.292 4.5757L13.4979 11.1447C12.5653 12.0555 12.3912 13.4658 13.0973 14.423C13.5454 15.0307 14.2041 15.3972 14.953 15.456C15.6908 15.5101 16.416 15.2549 16.9385 14.7446L23.9843 7.95607C24.2947 7.65607 24.7982 7.65916 25.1038 7.9638C25.4109 8.26689 25.4078 8.75708 25.0974 9.05708L22.8238 11.2483L31.2423 18.4652C32.7687 19.7719 33.1518 21.9553 32.1338 23.545C31.5068 24.5254 30.4808 25.1842 29.3233 25.3496C28.9513 25.4037 28.576 25.4068 28.2087 25.3558C28.4145 26.3084 28.2673 27.3135 27.7305 28.1532C27.1019 29.1351 26.0759 29.7923 24.9185 29.9578C24.3691 30.0367 23.8197 30.0026 23.3003 29.8635C23.3637 30.6583 23.1879 31.4624 22.743 32.1536C22.116 33.134 21.09 33.7928 19.9326 33.9582C19.7378 33.9861 19.5447 34 19.3515 34C18.3904 34 17.4562 33.6613 16.7248 33.0335L11.5932 28.5367C3.79208 21.6507 0 15.858 0 10.8246C0 5.05817 4.81017 0 10.2917 0C12.1283 0 13.9634 0.581435 15.6022 1.68245C15.9632 1.92523 16.0534 2.40615 15.8064 2.75717C15.5594 3.11129 15.067 3.19944 14.706 2.95666C13.3333 2.03347 11.8069 1.54637 10.2933 1.54637C5.73642 1.54637 1.58492 5.96898 1.58492 10.8246C1.58492 15.3322 5.30892 20.9054 12.654 27.3877L17.7761 31.8768C18.3002 32.3268 19.0032 32.5263 19.7046 32.4289C20.4123 32.3284 21.0172 31.9387 21.4035 31.3341C22.0147 30.3815 21.7598 29.0485 20.8097 28.2351L15.5278 23.3316C15.2111 23.0378 15.1984 22.5491 15.4992 22.2399C15.7985 21.9291 16.3004 21.9167 16.6171 22.2089L22.7778 27.8888C23.2861 28.3248 23.9907 28.532 24.6905 28.4284C25.3983 28.3279 26.0031 27.9382 26.391 27.3336C27.0006 26.3826 26.7457 25.0496 25.7957 24.2362L19.9136 19.0358C19.5906 18.7497 19.5637 18.2626 19.855 17.9456C20.1448 17.6271 20.6435 17.6008 20.9713 17.8837L27.1637 23.2667C27.6909 23.7167 28.3907 23.9192 29.0953 23.8203C29.8031 23.7182 30.4063 23.3301 30.7943 22.7254C31.4038 21.7729 31.1489 20.4399 30.1989 19.6281L21.6948 12.3369L18.0563 15.8425C17.2077 16.6714 16.0297 17.0874 14.8279 16.9992C13.6262 16.9034 12.5273 16.2956 11.8148 15.3276C10.6606 13.7627 10.9044 11.4942 12.3833 10.0498L19.2011 3.45923C21.1613 1.69946 23.4143 0.00154644 27.7083 0.00154644C33.1914 0.00154644 38 5.05972 38 10.8261V10.8246Z" fill="#9123A8"/>
</svg>
