<svg width="38" height="38" viewBox="0 0 38 38" fill="none" xmlns="http://www.w3.org/2000/svg">
<path d="M38 8.70833V24.7016C38 27.873 36.7651 30.856 34.5231 33.098L29.8525 37.7688C29.6973 37.924 29.4947 38 29.292 38C29.0894 38 28.8867 37.9224 28.7316 37.7688C28.4228 37.4601 28.4228 36.9582 28.7316 36.6494L33.4022 31.9786C35.3464 30.0343 36.4151 27.4518 36.4151 24.7016V8.70833C36.4151 7.39892 35.3496 6.33333 34.0402 6.33333C32.7309 6.33333 31.6653 7.39892 31.6653 8.70833C31.6653 8.70833 31.6511 21.432 31.6479 21.4605C31.6289 22.3345 31.3344 23.2022 30.7407 23.9083L26.5625 28.2562C26.4073 28.4177 26.1999 28.4984 25.9925 28.4984C25.7946 28.4984 25.5967 28.4256 25.4431 28.2767C25.128 27.9743 25.1185 27.4724 25.4209 27.1573L29.5628 22.8491C29.919 22.4232 30.0916 21.8785 30.0805 21.3307V21.3164C30.0662 20.7686 29.8652 20.2192 29.4757 19.7838C29.053 19.3135 28.4719 19.0332 27.8418 18.9984C27.2164 18.9715 26.6036 19.1773 26.1318 19.6001L21.8111 23.5774C20.9862 24.3358 20.3466 25.2447 19.8653 26.2548C20.326 27.4344 20.5809 28.6963 20.5809 29.9852V37.2052C20.5809 37.6422 20.2262 37.9968 19.7893 37.9968C19.3523 37.9968 18.9976 37.6422 18.9976 37.2052V29.9852C18.9976 27.5579 17.9733 25.2209 16.1857 23.5774L11.8571 19.5938C11.3948 19.1789 10.7884 18.9715 10.1551 19C9.52494 19.0348 8.94229 19.3135 8.52115 19.7853C7.73901 20.6578 7.71685 21.9925 8.47048 22.8887L12.5775 27.1557C12.8799 27.4708 12.872 27.9727 12.5553 28.2752C12.2434 28.5792 11.7368 28.5697 11.4359 28.253L7.29411 23.9448C6.69247 23.2291 6.39007 22.363 6.35998 21.4953C6.35365 21.4526 6.33465 8.70358 6.33465 8.70358C6.33465 7.39417 5.26911 6.32858 3.95975 6.32858C2.65039 6.32858 1.58485 7.39417 1.58485 8.70358V24.6968C1.58485 27.4455 2.65514 30.0295 4.59781 31.9738L9.26845 36.6447C9.57718 36.9534 9.57718 37.4553 9.26845 37.7641C9.11329 37.9193 8.91063 37.9953 8.70797 37.9953C8.50531 37.9953 8.30265 37.9177 8.14749 37.7641L3.47686 33.0933C1.23495 30.8512 0 27.8682 0 24.6968V8.70833C0 6.5265 1.77484 4.75 3.95817 4.75C6.14149 4.75 7.91634 6.5265 7.91634 8.70833V18.2036C8.53539 17.7381 9.27795 17.4658 10.068 17.4214C11.1335 17.3502 12.1357 17.7191 12.9226 18.4237L17.2592 22.4153C17.94 23.0407 18.5147 23.7579 18.9976 24.5306C19.4821 23.7563 20.0568 23.0438 20.7376 22.4153L25.0663 18.4316C25.8611 17.7207 26.8744 17.3581 27.9288 17.423C28.7205 17.4657 29.463 17.7381 30.0805 18.2052V8.70992C30.0805 6.52808 31.8553 4.75158 34.0387 4.75158C36.222 4.75158 37.9968 6.52808 37.9968 8.70992L38 8.70833ZM10.2754 7.75833C9.74343 7.13767 9.48377 6.30958 9.50119 5.54167C9.5566 4.79908 9.88276 3.95833 10.4416 3.39942L12.682 1.159C13.4309 0.411667 14.4236 0 15.4812 0H22.522C23.5796 0 24.5723 0.411667 25.3212 1.159L27.5615 3.39942C28.122 3.95992 28.4466 4.79592 28.502 5.54167C28.521 6.30958 28.2613 7.1345 27.7309 7.75517L19.6009 17.1427C19.4504 17.3169 19.2335 17.4167 19.0024 17.4167C18.7712 17.4167 18.5543 17.3169 18.4039 17.1427L10.2754 7.75833ZM26.7493 6.33333H23.4862L20.3529 13.8526L26.5276 6.72283C26.6274 6.60567 26.6891 6.4695 26.7493 6.33333ZM21.8649 1.58333L23.4482 4.75H26.5957C26.5419 4.674 26.5086 4.5885 26.4406 4.52042L24.2002 2.27842C23.7585 1.83667 23.1458 1.58333 22.5204 1.58333H21.8633H21.8649ZM21.7715 6.33333H16.9869L19.091 12.768L21.7715 6.33333ZM16.9805 4.75H21.6781L20.0948 1.58333H17.9954L16.979 4.75H16.9805ZM11.4059 4.75H15.3165L16.3314 1.58333H15.4796C14.8542 1.58333 14.2431 1.83667 13.7998 2.27842L11.5594 4.51883C11.4914 4.58692 11.4581 4.67242 11.4059 4.75ZM11.2539 6.33333C11.3156 6.4695 11.3758 6.60725 11.4771 6.726L17.8593 14.098L15.3213 6.33492L11.2539 6.33333Z" fill="#9123A8"/>
</svg>
