<svg width="38" height="38" viewBox="0 0 38 38" fill="none" xmlns="http://www.w3.org/2000/svg">
<path d="M34.8603 9.2373L22.9868 1.22655C20.5659 -0.408849 17.4341 -0.408849 15.0163 1.22655L3.13975 9.2373C1.17325 10.564 0 12.7709 0 15.1409V30.8758C0 34.8036 3.19675 38 7.125 38H30.875C34.8032 38 38 34.8036 38 30.8758V15.1425C38 12.7725 36.8268 10.5624 34.8603 9.2373ZM30.0833 36.4184H7.91667V19.7953C7.91667 17.6122 9.69158 15.8375 11.875 15.8375H26.125C28.3084 15.8375 30.0833 17.6122 30.0833 19.7953V36.4184ZM36.4167 30.8774C36.4167 33.6637 34.3488 35.9767 31.6667 36.3614V19.7953C31.6667 16.7399 29.1808 14.2543 26.125 14.2543H11.875C8.81917 14.2543 6.33333 16.7399 6.33333 19.7953V36.3614C3.65117 35.9767 1.58333 33.6637 1.58333 30.8774V15.1425C1.58333 13.2981 2.49533 11.5819 4.02483 10.5497L15.9014 2.5374C16.8419 1.90255 17.9202 1.58276 19 1.58276C20.0798 1.58276 21.1581 1.90097 22.1002 2.5374L33.9752 10.5497C35.5047 11.5819 36.4167 13.2981 36.4167 15.1425V30.8774ZM22.1667 30.8774C22.1667 31.3144 21.812 31.669 21.375 31.669H16.625C16.188 31.669 15.8333 31.3144 15.8333 30.8774C15.8333 30.4404 16.188 30.0858 16.625 30.0858H21.375C21.812 30.0858 22.1667 30.4404 22.1667 30.8774Z" fill="#9123A8"/>
</svg>
