<svg width="38" height="38" viewBox="0 0 38 38" fill="none" xmlns="http://www.w3.org/2000/svg">
<path d="M6.3297 10.2917C6.3297 9.85467 6.68417 9.5 7.12092 9.5H15.033C15.4698 9.5 15.8243 9.85467 15.8243 10.2917C15.8243 10.7287 15.4698 11.0833 15.033 11.0833H7.12092C6.68417 11.0833 6.3297 10.7287 6.3297 10.2917ZM18.1979 15.8333H7.12092C6.68417 15.8333 6.3297 16.188 6.3297 16.625C6.3297 17.062 6.68417 17.4167 7.12092 17.4167H18.1979C18.6346 17.4167 18.9891 17.062 18.9891 16.625C18.9891 16.188 18.6346 15.8333 18.1979 15.8333ZM18.1979 22.1667H7.12092C6.68417 22.1667 6.3297 22.5213 6.3297 22.9583C6.3297 23.3953 6.68417 23.75 7.12092 23.75H18.1979C18.6346 23.75 18.9891 23.3953 18.9891 22.9583C18.9891 22.5213 18.6346 22.1667 18.1979 22.1667ZM37.2012 10.2933L34.1899 12.7474L35.4258 16.2751C35.7296 17.1918 35.4258 18.1893 34.6694 18.7688C33.9145 19.3499 32.8733 19.3911 32.0789 18.8702L28.5216 16.5522L25.0276 18.8939C24.6589 19.1409 24.2269 19.2723 23.7807 19.2723C23.2917 19.2723 22.8265 19.1172 22.4356 18.8227C21.6777 18.2574 21.358 17.2663 21.6428 16.3558L22.8391 12.7601L19.8151 10.2964C19.0888 9.67733 18.8261 8.67983 19.1489 7.80267C19.4717 6.92392 20.3168 6.33333 21.2536 6.33333H25.0482L26.4012 2.53492C26.7303 1.65142 27.5738 1.064 28.5058 1.064C29.4379 1.064 30.2829 1.65142 30.6073 2.52542L31.9634 6.33333H35.7581C36.6965 6.33333 37.5415 6.9255 37.8643 7.809C38.1871 8.68933 37.9197 9.68842 37.2012 10.2933ZM36.3768 8.3505C36.2819 8.09083 36.0334 7.91667 35.7581 7.91667H31.4048C31.0709 7.91667 30.7719 7.70608 30.6595 7.391L29.1182 3.06692C28.9362 2.5745 28.077 2.56658 27.8871 3.07642L26.3506 7.39258C26.2382 7.70767 25.9391 7.91825 25.6052 7.91825H21.2536C20.9782 7.91825 20.7298 8.09083 20.6348 8.34892C20.5399 8.60858 20.6174 8.9015 20.8279 9.08042L24.2633 11.8782C24.5197 12.0856 24.6194 12.4308 24.5149 12.7427L23.1509 16.8451C23.0718 17.0984 23.1635 17.3913 23.3867 17.5576C23.6114 17.7222 23.9199 17.7302 24.1494 17.5798L28.0786 14.9483C28.3412 14.7741 28.6846 14.7725 28.9505 14.9435L32.9445 17.5465C33.1787 17.6985 33.4857 17.6858 33.7073 17.5148C33.9288 17.3454 34.019 17.0525 33.9304 16.7865L32.5157 12.7474C32.4049 12.4339 32.5046 12.0824 32.7625 11.8718L36.1932 9.07408C36.3942 8.90467 36.4733 8.61017 36.3784 8.35208L36.3768 8.3505ZM33.2325 33.25C33.2325 35.8688 31.1026 38 28.4852 38H4.74728C2.12995 38 0 35.8688 0 33.25V7.125C0 3.19675 3.19492 0 7.12092 0H22.9452C23.3819 0 23.7364 0.354667 23.7364 0.791667C23.7364 1.22867 23.3819 1.58333 22.9452 1.58333H7.12092C4.06683 1.58333 1.58243 4.06917 1.58243 7.125V33.25C1.58243 34.9964 3.00186 36.4167 4.74728 36.4167C6.49269 36.4167 7.91213 34.9964 7.91213 33.25C7.91213 30.6312 10.0421 28.5 12.6594 28.5H26.9012V21.375C26.9012 20.938 27.2557 20.5833 27.6924 20.5833C28.1292 20.5833 28.4837 20.938 28.4837 21.375V28.5C31.101 28.5 33.2325 30.6312 33.2325 33.25ZM31.6501 33.25C31.6501 31.5036 30.2307 30.0833 28.4852 30.0833H12.661C10.9156 30.0833 9.49614 31.5036 9.49614 33.25C9.49614 34.466 9.03723 35.5759 8.284 36.4167H28.4852C30.2307 36.4167 31.6501 34.9964 31.6501 33.25Z" fill="#9123A8"/>
</svg>
