<svg width="20" height="20" viewBox="0 0 20 20" fill="none" xmlns="http://www.w3.org/2000/svg">
<path d="M19.6663 18.0553L11.6111 10L19.6663 1.94472C19.88 1.73108 20 1.44132 20 1.13919C20 0.837057 19.88 0.5473 19.6663 0.333661C19.4527 0.120021 19.1629 0 18.8608 0C18.5587 0 18.2689 0.120021 18.0553 0.333661L10 8.38894L1.94472 0.333661C1.73108 0.120021 1.44132 0 1.13919 0C0.837058 0 0.547301 0.120021 0.333661 0.333661C0.120022 0.5473 6.24172e-07 0.837057 6.24172e-07 1.13919C6.24172e-07 1.44132 0.120022 1.73108 0.333661 1.94472L8.38894 10L0.333661 18.0553C0.120022 18.2689 0 18.5587 0 18.8608C0 19.1629 0.120022 19.4527 0.333661 19.6663C0.547301 19.88 0.837057 20 1.13919 20C1.44132 20 1.73108 19.88 1.94472 19.6663L10 11.6111L18.0553 19.6663C18.2689 19.88 18.5587 20 18.8608 20C19.1629 20 19.4527 19.88 19.6663 19.6663C19.88 19.4527 20 19.1629 20 18.8608C20 18.5587 19.88 18.2689 19.6663 18.0553Z" fill="white"/>
</svg>
