<svg width="22" height="12" viewBox="0 0 22 12" fill="none" xmlns="http://www.w3.org/2000/svg">
<path d="M8.51834 11.2448C8.37046 11.7879 7.80326 12.1102 7.25155 11.9645C6.7001 11.8189 6.37288 11.2608 6.52056 10.7179L6.82316 9.6055C6.96143 9.09716 6.68095 8.57337 6.19647 8.35096C5.59256 8.07372 5.01457 7.74473 4.46922 7.36781C4.03112 7.06501 3.42908 7.08752 3.05065 7.46022L2.22338 8.27498C1.81946 8.6728 1.16416 8.67264 0.760145 8.27492C0.356131 7.8772 0.35597 7.23211 0.760078 6.83448L1.58747 6.02036C1.96618 5.64772 1.98891 5.05485 1.68117 4.62348C0.936837 3.58012 0.379748 2.41895 0.0340132 1.1907C-0.1184 0.649237 0.258672 0.11795 0.820163 0.0171197C1.38285 -0.0839251 1.91645 0.28652 2.08043 0.825943C3.22908 4.60458 6.78757 7.35899 10.9999 7.35899C15.2115 7.35899 18.7709 4.60434 19.9196 0.825459C20.0835 0.28622 20.6168 -0.0841935 21.1793 0.0165439C21.741 0.117119 22.1184 0.64838 21.966 1.18997C21.6205 2.41852 21.0636 3.58002 20.3193 4.6237C20.0118 5.05498 20.0345 5.64762 20.413 6.02022L21.2401 6.83448C21.6441 7.23214 21.6438 7.87718 21.2398 8.27484C20.8358 8.67255 20.1804 8.6728 19.7765 8.27499L18.9492 7.46022C18.5708 7.08752 17.9687 7.06501 17.5306 7.36781C16.9853 7.74475 16.4073 8.07375 15.8033 8.351C15.3189 8.57339 15.0384 9.09713 15.1766 9.60544L15.4793 10.7186C15.627 11.2617 15.2995 11.8197 14.7479 11.9651C14.1963 12.1105 13.6295 11.7883 13.4817 11.2454L13.1784 10.1315C13.04 9.62333 12.5314 9.30771 11.9991 9.35361C11.3343 9.41092 10.6656 9.41092 10.0008 9.35361C9.46845 9.30771 8.95982 9.62333 8.82147 10.1315L8.51834 11.2448Z" fill="#1A1A1A"/>
</svg>
