<svg width="32" height="38" viewBox="0 0 32 38" fill="none" xmlns="http://www.w3.org/2000/svg">
<path d="M16.0024 38C15.8792 38 15.7576 37.9714 15.6441 37.9159L14.9642 37.5795C11.4543 35.8374 0 29.3431 0 18.8568L0.00319948 10.3745C0.00319948 7.29155 1.9853 4.56724 4.93686 3.59778L15.7512 0.0404601C15.9144 -0.0134867 16.092 -0.0134867 16.2536 0.0404601L27.0663 3.59619C30.0179 4.56724 32 7.29155 32 10.3729L31.9952 18.8552C31.9952 30.7521 20.5217 36.2562 17.0054 37.6605L16.3 37.9413C16.204 37.9794 16.1016 37.9984 16.0008 37.9984L16.0024 38ZM16.0024 1.63031L5.44078 5.10353C3.14513 5.85879 1.60456 7.97699 1.60456 10.3745L1.60136 18.8568C1.60136 28.4324 12.3773 34.5236 15.6808 36.161L16.0392 36.3388L16.4103 36.1912C19.6914 34.8822 30.397 29.762 30.397 18.8584L30.4018 10.376C30.4018 7.97858 28.8597 5.86037 26.5656 5.10512L16.0024 1.63031Z" fill="#9123A8"/>
<path d="M14.3722 23.8009C13.3468 23.8009 12.3214 23.4137 11.5407 22.6394L6.6518 18.0301C6.33185 17.7287 6.31905 17.2257 6.62301 16.9084C6.92696 16.5926 7.43248 16.5783 7.75404 16.8798L12.6573 21.5034C13.6076 22.4443 15.1289 22.4459 16.0648 21.5177L25.0426 12.9179C25.3626 12.6148 25.8697 12.6244 26.1737 12.9385C26.4808 13.2527 26.4728 13.7557 26.1545 14.0603L17.1846 22.6505C16.4119 23.4169 15.3913 23.8025 14.3706 23.8025L14.3722 23.8009Z" fill="#9123A8"/>
</svg>
