<svg width="23" height="13" viewBox="0 0 23 13" fill="none" xmlns="http://www.w3.org/2000/svg">
<path d="M22.3833 11.7404C22.3567 11.681 22.3319 11.6316 22.3088 11.5921C21.9271 10.8801 21.1977 10.0062 20.121 8.97013L20.0982 8.94641L20.0868 8.93477L20.0753 8.92285H20.0638C19.5751 8.44039 19.2657 8.11599 19.1361 7.94991C18.899 7.63354 18.8459 7.3133 18.9754 6.98882C19.067 6.74366 19.4109 6.22593 20.0064 5.43491C20.3196 5.01569 20.5676 4.67971 20.7508 4.42657C22.072 2.60744 22.6448 1.44499 22.4691 0.938763L22.4008 0.820465C22.355 0.749245 22.2366 0.684092 22.0459 0.624673C21.8548 0.565379 21.6105 0.555573 21.3126 0.595089L18.0138 0.61869C17.9604 0.599077 17.8841 0.600905 17.7846 0.624673C17.6853 0.648441 17.6357 0.660366 17.6357 0.660366L17.5783 0.690076L17.5327 0.725768C17.4945 0.74937 17.4525 0.79088 17.4066 0.850216C17.361 0.909344 17.3229 0.978735 17.2924 1.05781C16.9332 2.01479 16.5249 2.90453 16.0666 3.72701C15.784 4.21744 15.5245 4.64248 15.2876 5.00236C15.0509 5.36211 14.8523 5.62717 14.6921 5.79707C14.5316 5.96715 14.3868 6.10339 14.2567 6.20632C14.1269 6.30928 14.0277 6.35279 13.9591 6.33687C13.8903 6.32096 13.8255 6.30517 13.7641 6.28938C13.6573 6.21816 13.5714 6.1213 13.5066 5.99872C13.4415 5.87615 13.3977 5.72187 13.3748 5.536C13.352 5.35002 13.3385 5.19005 13.3346 5.05554C13.3311 4.92121 13.3327 4.73119 13.3405 4.48603C13.3484 4.24075 13.352 4.0748 13.352 3.98779C13.352 3.6872 13.3576 3.36098 13.369 3.00904C13.3805 2.65709 13.3899 2.37824 13.3977 2.17281C13.4055 1.96717 13.4091 1.7496 13.4091 1.52024C13.4091 1.29087 13.3956 1.11099 13.369 0.980439C13.3427 0.850049 13.3023 0.723483 13.249 0.600781C13.1955 0.478203 13.1171 0.383382 13.0142 0.316069C12.9111 0.248838 12.783 0.195485 12.6305 0.155845C12.2257 0.0609823 11.7103 0.00966592 11.084 0.00168799C9.66374 -0.0141017 8.75114 0.0808854 8.34641 0.286525C8.18605 0.37341 8.04094 0.492123 7.91119 0.642291C7.7737 0.816351 7.75452 0.911339 7.85378 0.926962C8.31203 0.998057 8.63643 1.16813 8.82736 1.43701L8.89617 1.57949C8.94969 1.68229 9.00313 1.86429 9.05661 2.12523C9.11001 2.38618 9.14447 2.67484 9.15963 2.99104C9.19775 3.56849 9.19775 4.06279 9.15963 4.47398C9.1214 4.88535 9.08529 5.20559 9.05083 5.43495C9.01637 5.66432 8.96485 5.85018 8.89617 5.99249C8.82736 6.13485 8.78159 6.22186 8.75864 6.25344C8.73573 6.28502 8.71663 6.30492 8.70147 6.31273C8.60221 6.35212 8.49898 6.37219 8.39214 6.37219C8.28515 6.37219 8.1554 6.31676 8.0027 6.20599C7.85005 6.09521 7.69161 5.94305 7.5274 5.74925C7.36319 5.55541 7.178 5.28453 6.97175 4.93658C6.76565 4.58863 6.55181 4.17739 6.33035 3.70287L6.14713 3.35874C6.03259 3.13735 5.87612 2.81499 5.67757 2.39195C5.47889 1.96875 5.30329 1.55938 5.15063 1.16393C5.08961 0.997849 4.99794 0.871408 4.87577 0.784398L4.81844 0.748705C4.78033 0.717126 4.71915 0.683593 4.63522 0.647859C4.55117 0.612166 4.46346 0.58657 4.37175 0.570822L1.23323 0.594423C0.912511 0.594423 0.694901 0.669673 0.58032 0.819966L0.534463 0.891061C0.511554 0.93066 0.5 0.993902 0.5 1.08095C0.5 1.16796 0.522908 1.27475 0.568765 1.40119C1.02693 2.51644 1.52518 3.59201 2.0635 4.62806C2.60183 5.66411 3.06963 6.49868 3.46661 7.13101C3.86367 7.7638 4.2684 8.36102 4.68079 8.92239C5.09318 9.48396 5.36616 9.84384 5.49972 10.0019C5.63343 10.1603 5.73847 10.2788 5.81482 10.3578L6.10123 10.6425C6.2845 10.8324 6.55362 11.0597 6.90872 11.3246C7.2639 11.5897 7.65711 11.8506 8.08856 12.1079C8.52009 12.3647 9.0221 12.5743 9.59489 12.7364C10.1676 12.8986 10.725 12.9638 11.2672 12.9323H12.5845C12.8517 12.9084 13.0541 12.8214 13.1917 12.6713L13.2372 12.6118C13.2679 12.5646 13.2966 12.4913 13.3231 12.3926C13.3499 12.2937 13.3632 12.1848 13.3632 12.0664C13.3554 11.7263 13.3803 11.4199 13.4375 11.1471C13.4946 10.8743 13.5596 10.6687 13.6324 10.5302C13.7052 10.3918 13.7872 10.2751 13.8786 10.1804C13.9701 10.0855 14.0354 10.0281 14.0737 10.0083C14.1117 9.9884 14.1421 9.97489 14.165 9.96679C14.3482 9.90355 14.5639 9.9648 14.8123 10.1508C15.0606 10.3367 15.2934 10.5662 15.5111 10.8389C15.7288 11.1119 15.9903 11.4182 16.2957 11.7582C16.6013 12.0984 16.8685 12.3512 17.0975 12.5175L17.3265 12.6599C17.4794 12.7549 17.678 12.8419 17.9224 12.921C18.1663 13 18.3801 13.0198 18.5636 12.9802L21.4959 12.9329C21.7859 12.9329 22.0116 12.8831 22.1717 12.7845C22.3321 12.6856 22.4273 12.5767 22.4581 12.4582C22.4887 12.3396 22.4904 12.2051 22.4639 12.0547C22.4367 11.9046 22.41 11.7997 22.3833 11.7404Z" fill="#9123A8"/>
</svg>
