<svg width="246" height="80" viewBox="0 0 246 80" fill="none" xmlns="http://www.w3.org/2000/svg">
<g clip-path="url(#clip0_3149_3703)">
<path fill-rule="evenodd" clip-rule="evenodd" d="M88.2037 23.0725C103.561 23.0725 116.063 35.5942 116.235 51.1884H116.292V80C106.929 80 97.5664 80 88.2037 80C72.7323 80 60.1726 67.2464 60.1726 51.5362C60.1726 35.8261 72.7323 23.0725 88.2037 23.0725ZM238.064 20.6957V14.1449H238.635H239.948C240.69 14.1449 241.318 14.3188 241.718 14.6667C242.118 15.0145 242.346 15.5362 242.346 16.1739C242.346 16.8696 242.118 17.4493 241.718 17.7971C241.433 18.029 241.09 18.2029 240.69 18.2609L242.403 20.6377H241.718H241.033L239.263 18.029V20.6377H238.692H238.064V20.6957ZM240.062 11.7101C241.604 11.7101 243.031 12.3478 244.059 13.3913C245.086 14.4348 245.714 15.8841 245.714 17.4493C245.714 19.0145 245.086 20.4638 244.059 21.5072C243.031 22.5507 241.604 23.1884 240.062 23.1884C238.521 23.1884 237.094 22.5507 236.066 21.5072C235.039 20.4638 234.411 19.0145 234.411 17.4493C234.411 15.8841 235.039 14.4348 236.066 13.3913C237.094 12.3478 238.521 11.7101 240.062 11.7101ZM243.145 14.3188C242.346 13.5072 241.261 13.0435 240.062 13.0435C238.864 13.0435 237.779 13.5652 236.98 14.3188C236.18 15.1304 235.724 16.2319 235.724 17.4493C235.724 18.6667 236.237 19.7681 236.98 20.5797C237.779 21.3913 238.864 21.8551 240.062 21.8551C241.261 21.8551 242.346 21.3333 243.145 20.5797C243.945 19.7681 244.401 18.6667 244.401 17.4493C244.401 16.2319 243.887 15.0725 243.145 14.3188ZM239.263 17.2754H239.891C240.348 17.2754 240.633 17.2174 240.862 17.0435C241.09 16.8696 241.204 16.6377 241.204 16.2899C241.204 15.942 241.09 15.7101 240.862 15.5362C240.633 15.3623 240.348 15.3043 239.891 15.3043H239.263V17.2754ZM200.842 38.4348H205.98C206.265 38.4348 206.551 38.4348 206.836 38.4348C215.114 37.971 221.794 31.4203 222.479 23.0725H233.954C233.554 31.7101 229.33 39.3623 222.935 44.2319C229.272 49.1594 233.497 56.7536 233.954 65.3913V80H222.536V65.4493C221.851 57.1014 215.171 50.4928 206.893 50.087C206.608 50.087 206.322 50.087 206.037 50.087C205.751 50.087 205.466 50.087 205.181 50.087H205.009V50.029H200.899V80H189.481V0H200.899V38.4348H200.842ZM180.061 80H168.643V23.1304H180.061V80ZM121.944 51.2464V51.5362C121.944 67.2464 134.503 80 149.975 80H158.481V68.4058C155.627 68.4058 152.829 68.4058 149.975 68.4058C140.783 68.4058 133.362 60.8696 133.362 51.5362V51.2464V34.6667H158.424V23.0725H133.362V0H121.944V23.0725V34.6667V51.2464ZM28.0882 68.4058C19.0109 68.4058 11.5892 60.9855 11.475 51.7681H11.418V51.2464V34.6667C16.9557 34.6667 22.4934 34.6667 28.0311 34.6667C37.2225 34.6667 44.6442 42.2029 44.6442 51.5362C44.6442 60.8696 37.2225 68.4058 28.0882 68.4058ZM0 23.0725V0H11.418V23.0725C16.9557 23.0725 22.4934 23.0725 28.0882 23.0725C43.5595 23.0725 56.1192 35.8261 56.1192 51.5362C56.1192 67.2464 43.5595 80 28.0882 80C12.731 80 0.228359 67.4783 0.0570898 51.8841H0V51.1884V23.0725ZM88.2608 34.6667C97.338 34.6667 104.76 42.087 104.874 51.3043H104.931V68.3478C99.3933 68.3478 93.8556 68.3478 88.3178 68.3478C79.1264 68.3478 71.7047 60.8116 71.7047 51.4783C71.6476 42.2029 79.0693 34.6667 88.2608 34.6667Z" fill="white"/>
</g>
<defs>
<clipPath id="clip0_3149_3703">
<rect width="245.714" height="80" fill="white"/>
</clipPath>
</defs>
</svg>
