<svg width="123" height="40" viewBox="0 0 123 40" fill="none" xmlns="http://www.w3.org/2000/svg">
<path fill-rule="evenodd" clip-rule="evenodd" d="M44.1018 11.5362C51.7804 11.5362 58.0317 17.7971 58.1174 25.5942H58.1459V40C53.4646 40 48.7832 40 44.1018 40C36.3662 40 30.0863 33.6232 30.0863 25.7681C30.0863 17.913 36.3662 11.5362 44.1018 11.5362ZM119.032 10.3478V7.07246H119.318H119.974C120.345 7.07246 120.659 7.15942 120.859 7.33333C121.059 7.50725 121.173 7.76812 121.173 8.08696C121.173 8.43478 121.059 8.72464 120.859 8.89855C120.716 9.01449 120.545 9.10145 120.345 9.13043L121.202 10.3188H120.859H120.516L119.632 9.01449V10.3188H119.346H119.032V10.3478ZM120.031 5.85507C120.802 5.85507 121.516 6.17391 122.029 6.69565C122.543 7.21739 122.857 7.94203 122.857 8.72464C122.857 9.50725 122.543 10.2319 122.029 10.7536C121.516 11.2754 120.802 11.5942 120.031 11.5942C119.26 11.5942 118.547 11.2754 118.033 10.7536C117.519 10.2319 117.205 9.50725 117.205 8.72464C117.205 7.94203 117.519 7.21739 118.033 6.69565C118.547 6.17391 119.26 5.85507 120.031 5.85507ZM121.573 7.15942C121.173 6.75362 120.631 6.52174 120.031 6.52174C119.432 6.52174 118.889 6.78261 118.49 7.15942C118.09 7.56522 117.862 8.11594 117.862 8.72464C117.862 9.33333 118.119 9.88406 118.49 10.2899C118.889 10.6957 119.432 10.9275 120.031 10.9275C120.631 10.9275 121.173 10.6667 121.573 10.2899C121.972 9.88406 122.201 9.33333 122.201 8.72464C122.201 8.11594 121.944 7.53623 121.573 7.15942ZM119.632 8.63768H119.946C120.174 8.63768 120.317 8.6087 120.431 8.52174C120.545 8.43478 120.602 8.31884 120.602 8.14493C120.602 7.97101 120.545 7.85507 120.431 7.76812C120.317 7.68116 120.174 7.65217 119.946 7.65217H119.632V8.63768ZM100.421 19.2174H102.99C103.133 19.2174 103.275 19.2174 103.418 19.2174C107.557 18.9855 110.897 15.7101 111.239 11.5362H116.977C116.777 15.8551 114.665 19.6812 111.468 22.1159C114.636 24.5797 116.749 28.3768 116.977 32.6957V40H111.268V32.7246C110.925 28.5507 107.586 25.2464 103.447 25.0435C103.304 25.0435 103.161 25.0435 103.018 25.0435C102.876 25.0435 102.733 25.0435 102.59 25.0435H102.505V25.0145H100.449V40H94.7404V0H100.449V19.2174H100.421ZM90.0305 40H84.3216V11.5652H90.0305V40ZM60.9719 25.6232V25.7681C60.9719 33.6232 67.2517 40 74.9874 40H79.2406V34.2029C77.8133 34.2029 76.4146 34.2029 74.9874 34.2029C70.3917 34.2029 66.6808 30.4348 66.6808 25.7681V25.6232V17.3333H79.212V11.5362H66.6808V0H60.9719V11.5362V17.3333V25.6232ZM14.0441 34.2029C9.50544 34.2029 5.79461 30.4928 5.73752 25.8841H5.70898V25.6232V17.3333C8.47783 17.3333 11.2467 17.3333 14.0155 17.3333C18.6113 17.3333 22.3221 21.1014 22.3221 25.7681C22.3221 30.4348 18.6113 34.2029 14.0441 34.2029ZM0 11.5362V0H5.70898V11.5362C8.47783 11.5362 11.2467 11.5362 14.0441 11.5362C21.7797 11.5362 28.0596 17.913 28.0596 25.7681C28.0596 33.6232 21.7797 40 14.0441 40C6.36551 40 0.11418 33.7391 0.0285449 25.942H0V25.5942V11.5362ZM44.1304 17.3333C48.669 17.3333 52.3798 21.0435 52.4369 25.6522H52.4655V34.1739C49.6966 34.1739 46.9278 34.1739 44.1589 34.1739C39.5632 34.1739 35.8524 30.4058 35.8524 25.7391C35.8238 21.1014 39.5347 17.3333 44.1304 17.3333Z" fill="#9123A8"/>
</svg>
